<svg width="36" height="36" viewBox="0 0 36 36" fill="none" xmlns="http://www.w3.org/2000/svg">
<rect width="36" height="36" rx="8" fill="url(#paint0_linear_109_6003)"/>
<path d="M31 17.9138C31 17.8461 31 17.7692 30.997 17.6799C30.994 17.4306 30.9879 17.1505 30.9819 16.852C30.9578 15.9932 30.9156 15.1376 30.8493 14.3312C30.7589 13.2201 30.6263 12.2936 30.4455 11.598C30.2547 10.8721 29.8807 10.2101 29.3609 9.67804C28.8411 9.14603 28.1937 8.76268 27.4834 8.56633C26.6306 8.33241 24.9612 8.18775 22.6107 8.09849C21.4927 8.0554 20.2964 8.0277 19.1001 8.01231C18.6812 8.00616 18.2925 8.00308 17.943 8H17.057C16.7075 8.00308 16.3187 8.00616 15.8999 8.01231C14.7036 8.0277 13.5073 8.0554 12.3893 8.09849C10.0388 8.19083 8.36641 8.33549 7.51663 8.56633C6.80607 8.7622 6.1584 9.14538 5.63851 9.67747C5.11863 10.2096 4.74479 10.8719 4.55446 11.598C4.37065 12.2936 4.24107 13.2201 4.15067 14.3312C4.08437 15.1376 4.04219 15.9932 4.01808 16.852C4.00904 17.1505 4.00603 17.4306 4.00301 17.6799C4.00301 17.7692 4 17.8461 4 17.9138V18.0862C4 18.1539 4 18.2308 4.00301 18.3201C4.00603 18.5694 4.01205 18.8495 4.01808 19.148C4.04219 20.0068 4.08437 20.8624 4.15067 21.6688C4.24107 22.7799 4.37366 23.7064 4.55446 24.402C4.94018 25.8763 6.07321 27.0397 7.51663 27.4337C8.36641 27.6676 10.0388 27.8122 12.3893 27.9015C13.5073 27.9446 14.7036 27.9723 15.8999 27.9877C16.3187 27.9938 16.7075 27.9969 17.057 28H17.943C18.2925 27.9969 18.6812 27.9938 19.1001 27.9877C20.2964 27.9723 21.4927 27.9446 22.6107 27.9015C24.9612 27.8092 26.6336 27.6645 27.4834 27.4337C28.9268 27.0397 30.0598 25.8793 30.4455 24.402C30.6294 23.7064 30.7589 22.7799 30.8493 21.6688C30.9156 20.8624 30.9578 20.0068 30.9819 19.148C30.991 18.8495 30.994 18.5694 30.997 18.3201C30.997 18.2308 31 18.1539 31 18.0862V17.9138ZM28.8304 18.0739C28.8304 18.1385 28.8304 18.2093 28.8273 18.2924C28.8243 18.5325 28.8183 18.7972 28.8123 19.0834C28.7912 19.9021 28.749 20.7208 28.6857 21.4811C28.6044 22.4721 28.4898 23.2847 28.3482 23.8295C28.1614 24.5405 27.6129 25.1037 26.9199 25.2915C26.2871 25.4638 24.693 25.6023 22.5263 25.6854C21.4295 25.7285 20.2482 25.7562 19.07 25.7716C18.6571 25.7778 18.2744 25.7809 17.9309 25.7809H17.0691L15.93 25.7716C14.7518 25.7562 13.5735 25.7285 12.4737 25.6854C10.307 25.5993 8.70993 25.4638 8.08013 25.2915C7.38705 25.1006 6.83862 24.5405 6.65179 23.8295C6.51016 23.2847 6.39565 22.4721 6.31429 21.4811C6.251 20.7208 6.21183 19.9021 6.18772 19.0834C6.17868 18.7972 6.17567 18.5294 6.17266 18.2924C6.17266 18.2093 6.16964 18.1354 6.16964 18.0739V17.9261C6.16964 17.8615 6.16964 17.7907 6.17266 17.7076C6.17567 17.4675 6.1817 17.2028 6.18772 16.9166C6.20882 16.0979 6.251 15.2792 6.31429 14.5189C6.39565 13.5279 6.51016 12.7153 6.65179 12.1705C6.83862 11.4595 7.38705 10.8963 8.08013 10.7085C8.71295 10.5362 10.307 10.3977 12.4737 10.3146C13.5705 10.2715 14.7518 10.2438 15.93 10.2284C16.3429 10.2222 16.7256 10.2191 17.0691 10.2191H17.9309L19.07 10.2284C20.2482 10.2438 21.4264 10.2715 22.5263 10.3146C24.693 10.4007 26.2901 10.5362 26.9199 10.7085C27.6129 10.8994 28.1614 11.4595 28.3482 12.1705C28.4898 12.7153 28.6044 13.5279 28.6857 14.5189C28.749 15.2792 28.7882 16.0979 28.8123 16.9166C28.8213 17.2028 28.8243 17.4706 28.8273 17.7076C28.8273 17.7907 28.8304 17.8646 28.8304 17.9261V18.0739ZM14.8181 22.1243L21.8092 17.9692L14.8181 13.8757V22.1243Z" fill="white"/>
<defs>
<linearGradient id="paint0_linear_109_6003" x1="-0.185567" y1="17.775" x2="36.3711" y2="17.775" gradientUnits="userSpaceOnUse">
<stop stop-color="#87533D"/>
<stop offset="1" stop-color="#686B2D"/>
</linearGradient>
</defs>
</svg>
