<svg width="21" height="21" viewBox="0 0 21 21" fill="none" xmlns="http://www.w3.org/2000/svg">
<g id="Calling">
<g id="Group 3">
<mask id="mask0_3157_4316" style="mask-type:luminance" maskUnits="userSpaceOnUse" x="12" y="0" width="9" height="9">
<path id="Clip 2" fill-rule="evenodd" clip-rule="evenodd" d="M12.3535 0.000244141H20.8925V8.53306H12.3535V0.000244141Z" fill="white"/>
</mask>
<g mask="url(#mask0_3157_4316)">
<path id="Fill 1" fill-rule="evenodd" clip-rule="evenodd" d="M20.1422 8.53306C19.7652 8.53306 19.4412 8.25006 19.3982 7.86706C19.0192 4.49106 16.3972 1.87106 13.0202 1.49606C12.6092 1.45006 12.3122 1.08006 12.3582 0.668058C12.4032 0.257058 12.7702 -0.0459422 13.1862 0.00605776C17.2642 0.459058 20.4312 3.62206 20.8882 7.69906C20.9342 8.11106 20.6382 8.48206 20.2272 8.52806C20.1992 8.53106 20.1702 8.53306 20.1422 8.53306Z" fill="#1B2559"/>
</g>
</g>
<path id="Fill 4" fill-rule="evenodd" clip-rule="evenodd" d="M16.6024 8.54391C16.2504 8.54391 15.9374 8.29591 15.8674 7.93791C15.5794 6.45791 14.4384 5.31691 12.9604 5.02991C12.5534 4.95091 12.2884 4.55791 12.3674 4.15091C12.4464 3.74391 12.8464 3.47791 13.2464 3.55791C15.3274 3.96191 16.9344 5.56791 17.3394 7.64991C17.4184 8.05791 17.1534 8.45091 16.7474 8.52991C16.6984 8.53891 16.6504 8.54391 16.6024 8.54391Z" fill="#1B2559"/>
<g id="Group 8">
<mask id="mask1_3157_4316" style="mask-type:luminance" maskUnits="userSpaceOnUse" x="0" y="-1" width="21" height="22">
<path id="Clip 7" fill-rule="evenodd" clip-rule="evenodd" d="M0 -0.00012207H20.5002V20.5004H0V-0.00012207Z" fill="white"/>
</mask>
<g mask="url(#mask1_3157_4316)">
<path id="Fill 6" fill-rule="evenodd" clip-rule="evenodd" d="M2.35908 3.06142C2.36108 3.06142 2.31108 3.11342 2.24808 3.17542C2.00608 3.41042 1.50508 3.89942 1.50008 4.92242C1.49208 6.35342 2.43308 9.01042 6.96408 13.5404C11.4731 18.0484 14.1261 19.0004 15.5611 19.0004H15.5821C16.6051 18.9944 17.0931 18.4934 17.3281 18.2524C17.3991 18.1794 17.4571 18.1244 17.4981 18.0914C18.4951 17.0884 19.0051 16.3434 19.0001 15.8644C18.9941 15.3764 18.3871 14.8004 17.5481 14.0014C17.2811 13.7484 16.9911 13.4714 16.6851 13.1654C15.8911 12.3744 15.5001 12.5094 14.6351 12.8134C13.4401 13.2324 11.8031 13.8064 9.25208 11.2534C6.70008 8.70242 7.27208 7.06542 7.68908 5.86942C7.99108 5.00542 8.12908 4.61242 7.33608 3.81842C7.02608 3.50842 6.74708 3.21442 6.49008 2.94442C5.69608 2.11042 5.12308 1.50742 4.63808 1.50042H4.63008C4.15108 1.50042 3.40708 2.01242 2.35408 3.06542C2.35708 3.06242 2.35808 3.06142 2.35908 3.06142ZM15.5611 20.5004C13.0691 20.5004 9.82008 18.5164 5.90408 14.6014C1.97208 10.6704 -0.0149157 7.41142 8.42937e-05 4.91442C0.00908429 3.26442 0.874084 2.41942 1.19908 2.10242C1.21608 2.08142 1.27408 2.02442 1.29408 2.00442C2.72908 0.569418 3.71508 -0.0205819 4.65708 0.000418074C5.77408 0.0154181 6.57008 0.852418 7.57708 1.91142C7.82608 2.17242 8.09508 2.45742 8.39608 2.75742C9.85508 4.21742 9.44008 5.40842 9.10508 6.36442C8.74108 7.40742 8.42608 8.30742 10.3121 10.1934C12.1981 12.0794 13.0971 11.7644 14.1391 11.3974C15.0961 11.0634 16.2841 10.6454 17.7461 12.1054C18.0431 12.4024 18.3231 12.6684 18.5831 12.9154C19.6461 13.9274 20.4861 14.7264 20.5001 15.8464C20.5111 16.8004 19.9311 17.7744 18.4991 19.2064L17.8651 18.7764L18.4021 19.2994C18.0851 19.6244 17.2421 20.4904 15.5911 20.5004H15.5611Z" fill="#1B2559"/>
</g>
</g>
</g>
</svg>
