<svg width="24" height="24" viewBox="0 0 24 24" fill="none" xmlns="http://www.w3.org/2000/svg">
<g clip-path="url(#clip0_874_1217)">
<path d="M1.17188 24.0002C0.940074 24.0002 0.713461 23.9315 0.520707 23.8027C0.327953 23.674 0.177717 23.4909 0.0890028 23.2768C0.000288369 23.0626 -0.022919 22.8269 0.0223161 22.5996C0.0675512 22.3722 0.179197 22.1634 0.34313 21.9995L21.9994 0.34328C22.2192 0.123481 22.5173 0 22.8281 0C23.139 0 23.4371 0.123481 23.6569 0.34328C23.8767 0.563078 24.0002 0.861188 24.0002 1.17203C24.0002 1.48287 23.8767 1.78098 23.6569 2.00078L2.00063 23.657C1.8919 23.766 1.76271 23.8524 1.62049 23.9113C1.47827 23.9702 1.32581 24.0004 1.17188 24.0002Z" fill="black"/>
<path d="M22.8281 24.0002C22.6742 24.0004 22.5217 23.9702 22.3795 23.9113C22.2373 23.8524 22.1081 23.766 21.9994 23.657L0.343127 2.00078C0.123329 1.78098 -0.000152588 1.48287 -0.000152588 1.17203C-0.000152588 0.861188 0.123329 0.563078 0.343127 0.34328C0.562925 0.123481 0.861035 0 1.17188 0C1.48272 0 1.78083 0.123481 2.00063 0.34328L23.6569 21.9995C23.8208 22.1634 23.9325 22.3722 23.9777 22.5996C24.0229 22.8269 23.9997 23.0626 23.911 23.2768C23.8223 23.4909 23.6721 23.674 23.4793 23.8027C23.2865 23.9315 23.0599 24.0002 22.8281 24.0002Z" fill="black"/>
</g>
<defs>
<clipPath id="clip0_874_1217">
<rect width="24" height="24" fill="white"/>
</clipPath>
</defs>
</svg>
