<svg width="64" height="64" viewBox="0 0 64 64" fill="none" xmlns="http://www.w3.org/2000/svg">
<mask id="mask0_186_2339" style="mask-type:luminance" maskUnits="userSpaceOnUse" x="35" y="18" width="12" height="13">
<path fill-rule="evenodd" clip-rule="evenodd" d="M35.1387 18.667H46.524V30.0441H35.1387V18.667Z" fill="white"/>
</mask>
<g mask="url(#mask0_186_2339)">
<path fill-rule="evenodd" clip-rule="evenodd" d="M45.5236 30.0441C45.0209 30.0441 44.5889 29.6667 44.5316 29.1561C44.0263 24.6547 40.5303 21.1614 36.0276 20.6614C35.4796 20.6001 35.0836 20.1067 35.1449 19.5574C35.2049 19.0094 35.6943 18.6054 36.2489 18.6747C41.6863 19.2787 45.9089 23.4961 46.5183 28.9321C46.5796 29.4814 46.1849 29.9761 45.6369 30.0374C45.5996 30.0414 45.5609 30.0441 45.5236 30.0441" fill="url(#paint0_linear_186_2339)"/>
</g>
<path fill-rule="evenodd" clip-rule="evenodd" d="M40.8039 30.0585C40.3346 30.0585 39.9172 29.7279 39.8239 29.2505C39.4399 27.2772 37.9186 25.7559 35.9479 25.3732C35.4052 25.2679 35.0519 24.7439 35.1572 24.2012C35.2626 23.6585 35.7959 23.3039 36.3292 23.4105C39.1039 23.9492 41.2466 26.0905 41.7866 28.8665C41.8919 29.4105 41.5386 29.9345 40.9972 30.0399C40.9319 30.0519 40.8679 30.0585 40.8039 30.0585" fill="url(#paint1_linear_186_2339)"/>
<mask id="mask1_186_2339" style="mask-type:luminance" maskUnits="userSpaceOnUse" x="18" y="18" width="29" height="29">
<path fill-rule="evenodd" clip-rule="evenodd" d="M18.668 18.6665H46.0016V46.0005H18.668V18.6665Z" fill="white"/>
</mask>
<g mask="url(#mask1_186_2339)">
<path fill-rule="evenodd" clip-rule="evenodd" d="M21.8134 22.7486C21.8161 22.7486 21.7494 22.8179 21.6654 22.9006C21.3427 23.2139 20.6747 23.8659 20.6681 25.2299C20.6574 27.1379 21.9121 30.6806 27.9534 36.7206C33.9654 42.7312 37.5027 44.0006 39.4161 44.0006H39.4441C40.8081 43.9926 41.4587 43.3246 41.7721 43.0032C41.8667 42.9059 41.9441 42.8326 41.9987 42.7886C43.3281 41.4512 44.0081 40.4579 44.0014 39.8192C43.9934 39.1686 43.1841 38.4006 42.0654 37.3352C41.7094 36.9979 41.3227 36.6286 40.9147 36.2206C39.8561 35.1659 39.3347 35.3459 38.1814 35.7512C36.5881 36.3099 34.4054 37.0752 31.0041 33.6712C27.6014 30.2699 28.3641 28.0872 28.9201 26.4926C29.3227 25.3406 29.5067 24.8166 28.4494 23.7579C28.0361 23.3446 27.6641 22.9526 27.3214 22.5926C26.2627 21.4806 25.4987 20.6766 24.8521 20.6672H24.8414C24.2027 20.6672 23.2107 21.3499 21.8067 22.7539C21.8107 22.7499 21.8121 22.7486 21.8134 22.7486V22.7486ZM39.4161 46.0006C36.0934 46.0006 31.7614 43.3552 26.5401 38.1352C21.2974 32.8939 18.6481 28.5486 18.6681 25.2192C18.6801 23.0192 19.8334 21.8926 20.2667 21.4699C20.2894 21.4419 20.3667 21.3659 20.3934 21.3392C22.3067 19.4259 23.6214 18.6392 24.8774 18.6672C26.3667 18.6872 27.4281 19.8032 28.7707 21.2152C29.1027 21.5632 29.4614 21.9432 29.8627 22.3432C31.8081 24.2899 31.2547 25.8779 30.8081 27.1526C30.3227 28.5432 29.9027 29.7432 32.4174 32.2579C34.9321 34.7726 36.1307 34.3526 37.5201 33.8632C38.7961 33.4179 40.3801 32.8606 42.3294 34.8072C42.7254 35.2032 43.0987 35.5579 43.4454 35.8872C44.8627 37.2366 45.9827 38.3019 46.0014 39.7952C46.0161 41.0672 45.2427 42.3659 43.3334 44.2752L42.4881 43.7019L43.2041 44.3992C42.7814 44.8326 41.6574 45.9872 39.4561 46.0006H39.4161Z" fill="url(#paint2_linear_186_2339)"/>
</g>
<rect x="1" y="1" width="62" height="62" rx="31" stroke="url(#paint3_linear_186_2339)" stroke-width="2"/>
<defs>
<linearGradient id="paint0_linear_186_2339" x1="35.08" y1="24.2844" x2="46.6419" y2="24.2844" gradientUnits="userSpaceOnUse">
<stop stop-color="#87533D"/>
<stop offset="1" stop-color="#686B2D"/>
</linearGradient>
<linearGradient id="paint1_linear_186_2339" x1="35.1043" y1="26.6834" x2="41.8739" y2="26.6834" gradientUnits="userSpaceOnUse">
<stop stop-color="#87533D"/>
<stop offset="1" stop-color="#686B2D"/>
</linearGradient>
<linearGradient id="paint2_linear_186_2339" x1="18.5271" y1="32.1627" x2="46.2834" y2="32.1627" gradientUnits="userSpaceOnUse">
<stop stop-color="#87533D"/>
<stop offset="1" stop-color="#686B2D"/>
</linearGradient>
<linearGradient id="paint3_linear_186_2339" x1="-0.329897" y1="31.6" x2="64.6598" y2="31.6" gradientUnits="userSpaceOnUse">
<stop stop-color="#87533D"/>
<stop offset="1" stop-color="#686B2D"/>
</linearGradient>
</defs>
</svg>
