<svg width="64" height="64" viewBox="0 0 64 64" fill="none" xmlns="http://www.w3.org/2000/svg">
<path fill-rule="evenodd" clip-rule="evenodd" d="M32.3353 27.3333C31.0486 27.3333 30.002 28.3799 30.002 29.6679C30.002 30.9546 31.0486 31.9999 32.3353 31.9999C33.622 31.9999 34.6686 30.9546 34.6686 29.6679C34.6686 28.3799 33.622 27.3333 32.3353 27.3333M32.3353 33.9999C29.946 33.9999 28.002 32.0573 28.002 29.6679C28.002 27.2773 29.946 25.3333 32.3353 25.3333C34.7246 25.3333 36.6686 27.2773 36.6686 29.6679C36.6686 32.0573 34.7246 33.9999 32.3353 33.9999" fill="url(#paint0_linear_186_2328)"/>
<mask id="mask0_186_2328" style="mask-type:luminance" maskUnits="userSpaceOnUse" x="21" y="18" width="23" height="27">
<path fill-rule="evenodd" clip-rule="evenodd" d="M21.334 18.6666H43.3333V44.6666H21.334V18.6666Z" fill="white"/>
</mask>
<g mask="url(#mask0_186_2328)">
<path fill-rule="evenodd" clip-rule="evenodd" d="M32.334 20.6666C27.3713 20.6666 23.334 24.7426 23.334 29.7506C23.334 36.1226 30.8327 42.3306 32.334 42.6613C33.8353 42.3293 41.334 36.1213 41.334 29.7506C41.334 24.7426 37.2967 20.6666 32.334 20.6666V20.6666ZM32.334 44.6666C29.942 44.6666 21.334 37.264 21.334 29.7506C21.334 23.6386 26.2687 18.6666 32.334 18.6666C38.3993 18.6666 43.334 23.6386 43.334 29.7506C43.334 37.264 34.726 44.6666 32.334 44.6666V44.6666Z" fill="url(#paint1_linear_186_2328)"/>
</g>
<rect x="1" y="1" width="62" height="62" rx="31" stroke="url(#paint2_linear_186_2328)" stroke-width="2"/>
<defs>
<linearGradient id="paint0_linear_186_2328" x1="27.9573" y1="29.6124" x2="36.758" y2="29.6124" gradientUnits="userSpaceOnUse">
<stop stop-color="#87533D"/>
<stop offset="1" stop-color="#686B2D"/>
</linearGradient>
<linearGradient id="paint1_linear_186_2328" x1="21.2206" y1="31.5041" x2="43.5608" y2="31.5041" gradientUnits="userSpaceOnUse">
<stop stop-color="#87533D"/>
<stop offset="1" stop-color="#686B2D"/>
</linearGradient>
<linearGradient id="paint2_linear_186_2328" x1="-0.329897" y1="31.6" x2="64.6598" y2="31.6" gradientUnits="userSpaceOnUse">
<stop stop-color="#87533D"/>
<stop offset="1" stop-color="#686B2D"/>
</linearGradient>
</defs>
</svg>
