<svg width="341" height="234" viewBox="0 0 341 234" fill="none" xmlns="http://www.w3.org/2000/svg">
<g clip-path="url(#clip0_100_2499)">
<g opacity="0.41">
<g opacity="0.41">
<path opacity="0.41" d="M328.905 167.632C330.466 130.617 312.324 99.0565 284.622 81.1334C279.55 77.8215 276.039 72.1719 275.453 66.1326C275.453 65.7429 275.453 65.5481 275.258 65.1585C270.186 24.6367 232.341 -3.8064 191.764 1.64845C153.138 6.71366 125.242 27.1693 129.534 66.5222C129.534 66.717 129.534 66.9118 129.534 67.3015C130.314 78.0163 121.925 86.9779 111.196 87.1727C108.855 87.1727 106.709 87.3675 104.368 87.5623C58.1342 92.4327 24.7755 133.929 29.6525 180.1C31.9935 201.14 41.9426 219.648 56.3785 233.09H296.717C315.055 215.556 327.735 191.399 328.905 167.632Z" fill="#DEDEDE"/>
</g>
</g>
<path opacity="0.31" d="M89.3469 55.2229C89.3469 60.6777 84.8601 65.1585 79.3978 65.1585C73.9356 65.1585 69.4487 60.6777 69.4487 55.2229C69.4487 49.768 73.9356 45.2872 79.3978 45.2872C84.8601 45.2872 89.3469 49.5732 89.3469 55.2229Z" fill="#DEDEDE"/>
<path opacity="0.31" d="M294.181 26.0005C299.029 26.0005 302.96 22.0755 302.96 17.2338C302.96 12.392 299.029 8.46704 294.181 8.46704C289.333 8.46704 285.402 12.392 285.402 17.2338C285.402 22.0755 289.333 26.0005 294.181 26.0005Z" fill="#DEDEDE"/>
<path opacity="0.31" d="M341 102.174C341 105.485 338.269 108.018 335.148 108.018C331.831 108.018 329.295 105.291 329.295 102.174C329.295 98.8617 332.027 96.3291 335.148 96.3291C338.464 96.3291 341 99.0565 341 102.174Z" fill="#DEDEDE"/>
<path opacity="0.31" d="M11.9001 178.152C11.9001 181.464 9.169 183.996 6.04772 183.996C2.73135 183.996 0.195312 181.269 0.195312 178.152C0.195312 174.84 2.92643 172.307 6.04772 172.307C9.169 172.307 11.9001 174.84 11.9001 178.152Z" fill="#DEDEDE"/>
<path d="M306.861 177.178C308.227 145.617 292.62 118.733 269.016 103.342C264.529 100.42 261.798 95.7446 261.212 90.4846C261.212 90.2897 261.212 89.9001 261.017 89.7053C256.726 55.2228 224.342 30.8708 189.813 35.5464C156.845 40.0272 133.045 57.3658 136.556 90.8742C136.556 91.069 136.556 91.2638 136.556 91.4586C137.142 100.615 129.924 108.213 120.95 108.408C118.999 108.408 117.048 108.602 115.098 108.797C76.0815 113.083 47.4047 148.54 51.6965 187.893C53.6473 206.01 62.0357 221.791 74.5208 233.09H279.55C295.156 218.089 305.886 197.439 306.861 177.178Z" fill="#DEDEDE"/>
<path d="M284.037 209.322H86.2256V77.0423C86.2256 74.8993 87.9813 72.9512 90.3223 72.9512H279.94C282.086 72.9512 284.037 74.7045 284.037 77.0423V209.322Z" fill="#ECF1F7"/>
<path d="M284.622 209.712H85.8354V77.0423C85.8354 74.5097 87.7862 72.5615 90.3223 72.5615H279.94C282.476 72.5615 284.427 74.5097 284.427 77.0423V209.712H284.622ZM86.8108 208.738H283.452V77.0423C283.452 75.0941 281.891 73.5356 279.94 73.5356H90.3223C88.3715 73.5356 86.8108 75.0941 86.8108 77.0423V208.738Z" fill="url(#paint0_linear_100_2499)"/>
<path d="M197.812 201.725H172.451V203.673H197.812V201.725Z" fill="#ECF1F7"/>
<path d="M198.397 204.257H172.061V201.14H198.397V204.257ZM173.036 203.283H197.421V202.309H173.036V203.283Z" fill="url(#paint1_linear_100_2499)"/>
<path d="M186.692 78.6009C186.692 79.3802 185.912 80.1594 185.131 80.1594C184.351 80.1594 183.571 79.575 183.571 78.6009C183.571 77.6268 184.351 77.0424 185.131 77.0424C186.107 77.0424 186.692 77.8216 186.692 78.6009Z" fill="#ECF1F7"/>
<path d="M185.131 80.549C183.961 80.549 182.985 79.575 182.985 78.6009C182.985 77.432 183.961 76.6527 185.131 76.6527C186.302 76.6527 187.277 77.6268 187.277 78.6009C187.277 79.575 186.302 80.549 185.131 80.549ZM185.131 77.6268C184.546 77.6268 184.156 78.0164 184.156 78.6009C184.156 79.1853 184.546 79.575 185.131 79.575C185.716 79.575 186.107 79.1853 186.107 78.6009C186.302 78.0164 185.716 77.6268 185.131 77.6268Z" fill="url(#paint2_linear_100_2499)"/>
<path d="M304.911 233.285H64.9622C62.4262 233.285 60.2803 231.921 60.2803 230.168V225.297C60.2803 224.713 60.8655 224.323 61.6458 224.323H308.617C309.398 224.323 309.983 224.713 309.983 225.297V230.168C309.983 231.726 307.642 233.285 304.911 233.285Z" fill="url(#paint3_linear_100_2499)"/>
<path d="M304.911 233.674H64.962C62.0358 233.674 59.6948 232.116 59.6948 229.973V225.102C59.6948 224.323 60.4751 223.739 61.4505 223.739H308.422C309.397 223.739 310.178 224.323 310.178 225.102V229.973C310.373 232.116 308.032 233.674 304.911 233.674ZM61.6456 224.713C61.0604 224.713 60.8653 224.908 60.8653 225.102V229.973C60.8653 231.337 62.8161 232.7 65.1571 232.7H305.106C307.447 232.7 309.592 231.337 309.592 229.973V225.102C309.592 224.908 309.202 224.713 308.812 224.713H61.6456Z" fill="#243762"/>
<path d="M99.4912 198.997H270.967C273.308 198.997 275.453 197.049 275.453 194.516V88.1468C275.453 85.809 273.503 83.666 270.967 83.666H99.4912C97.1503 83.666 95.0044 85.6142 95.0044 88.1468V194.711C95.0044 197.049 96.9552 198.997 99.4912 198.997Z" fill="white"/>
<path d="M270.967 199.582H99.4913C96.7601 199.582 94.6143 197.439 94.6143 194.711V88.1468C94.6143 85.4193 96.7601 83.2764 99.4913 83.2764H270.967C273.698 83.2764 275.844 85.4193 275.844 88.1468V194.711C275.844 197.244 273.698 199.582 270.967 199.582ZM99.4913 84.2504C97.3454 84.2504 95.5897 86.0038 95.5897 88.1468V194.711C95.5897 196.854 97.3454 198.607 99.4913 198.607H270.967C273.113 198.607 274.868 196.854 274.868 194.711V88.1468C274.868 86.0038 273.113 84.2504 270.967 84.2504H99.4913Z" fill="url(#paint4_linear_100_2499)"/>
<path d="M274.478 91.4587V88.3416C274.478 86.1987 272.527 84.2505 270.186 84.2505H100.076C97.7355 84.2505 95.7847 86.0038 95.7847 88.3416V91.4587H274.478Z" fill="#A3AED0"/>
<path d="M259.457 88.1468C259.457 88.7313 259.067 89.1209 258.481 89.1209C257.896 89.1209 257.506 88.7313 257.506 88.1468C257.506 87.5624 257.896 87.1727 258.481 87.1727C259.067 87.1727 259.457 87.5624 259.457 88.1468Z" fill="white"/>
<path d="M262.383 89.1209C262.922 89.1209 263.359 88.6848 263.359 88.1468C263.359 87.6088 262.922 87.1727 262.383 87.1727C261.844 87.1727 261.408 87.6088 261.408 88.1468C261.408 88.6848 261.844 89.1209 262.383 89.1209Z" fill="white"/>
<path d="M266.48 89.1209C267.018 89.1209 267.455 88.6848 267.455 88.1468C267.455 87.6088 267.018 87.1727 266.48 87.1727C265.941 87.1727 265.504 87.6088 265.504 88.1468C265.504 88.6848 265.941 89.1209 266.48 89.1209Z" fill="white"/>
<path opacity="0.43" d="M258.481 104.122H110.416V183.996H258.481V104.122Z" fill="#E1E9F8"/>
<path d="M87.0062 208.933L61.0605 224.129L308.617 223.934L284.622 208.933H87.0062Z" fill="#ECF1F7"/>
<path d="M61.2554 224.518L61.0603 223.934L60.8652 223.544L87.006 208.154H87.201H285.012L310.568 224.323L61.2554 224.518ZM87.201 209.322L63.0111 223.544L306.861 223.349L284.622 209.322H87.201Z" fill="url(#paint5_linear_100_2499)"/>
<g opacity="0.26">
<path opacity="0.26" d="M119.779 208.933L102.612 219.063L267.065 218.868L251.263 208.933H119.779Z" fill="#ECF1F7"/>
<path opacity="0.26" d="M100.662 219.453L119.584 208.348H251.263L268.821 219.453H100.662ZM119.975 209.322L104.563 218.479H265.504L251.263 209.517L119.975 209.322Z" fill="#243762"/>
</g>
<path d="M162.112 137.435C161.332 137.435 160.551 136.656 160.551 135.877C160.551 132.565 157.82 129.837 154.504 129.837C151.187 129.837 148.456 132.565 148.456 135.877C148.456 136.656 147.676 137.435 146.896 137.435C146.115 137.435 145.335 136.656 145.335 135.877C145.335 130.811 149.432 126.72 154.504 126.72C159.576 126.72 163.673 130.811 163.673 135.877C163.673 136.851 162.892 137.435 162.112 137.435Z" fill="url(#paint6_linear_100_2499)"/>
<path d="M223.562 137.435C222.782 137.435 222.001 136.656 222.001 135.877C222.001 132.565 219.27 129.837 215.954 129.837C212.638 129.837 209.906 132.565 209.906 135.877C209.906 136.656 209.126 137.435 208.346 137.435C207.565 137.435 206.785 136.656 206.785 135.877C206.785 130.811 210.882 126.72 215.954 126.72C221.026 126.72 225.123 130.811 225.123 135.877C224.928 136.851 224.342 137.435 223.562 137.435Z" fill="url(#paint7_linear_100_2499)"/>
<path d="M185.131 170.164C171.28 170.164 159.771 158.865 159.576 145.033C159.576 144.449 159.771 143.864 160.161 143.475C160.551 143.085 161.136 142.89 161.722 142.89H210.687V144.449C210.687 158.67 199.177 170.164 185.131 170.164ZM162.502 146.202C163.282 157.891 173.231 167.242 184.936 167.242C196.836 167.242 206.59 157.891 207.37 146.202H162.502Z" fill="url(#paint8_linear_100_2499)"/>
<path d="M274.478 92.0432H136.556C136.166 92.0432 135.971 91.8484 135.971 91.4587C135.971 91.0691 136.166 90.8743 136.556 90.8743H274.673C275.063 90.8743 275.258 91.0691 275.258 91.4587C275.063 91.8484 274.868 92.0432 274.478 92.0432Z" fill="url(#paint9_linear_100_2499)"/>
<path d="M247.362 73.3408V55.8074C247.362 46.4562 254.19 38.8584 262.773 38.8584H275.258C283.647 38.8584 290.67 46.4562 290.67 55.8074V73.3408C290.67 82.692 283.842 90.2898 275.258 90.2898H262.773C254.19 90.2898 247.362 82.692 247.362 73.3408ZM262.578 46.8459C258.091 46.8459 254.385 50.937 254.385 55.8074V73.3408C254.385 78.2112 258.091 82.3024 262.578 82.3024H275.063C279.55 82.3024 283.257 78.2112 283.257 73.3408V55.8074C283.257 50.937 279.55 46.8459 275.063 46.8459H262.578Z" fill="url(#paint10_linear_100_2499)"/>
<path d="M275.063 90.8743H262.578C253.799 90.8743 246.776 83.0816 246.776 73.3408V55.8074C246.776 46.2614 253.799 38.2739 262.578 38.2739H275.063C283.842 38.2739 290.865 46.0666 290.865 55.8074V73.3408C290.865 82.8868 283.842 90.8743 275.063 90.8743ZM262.578 39.248C254.385 39.248 247.752 46.651 247.752 55.8074V73.3408C247.752 82.4972 254.385 89.9002 262.578 89.9002H275.063C283.256 89.9002 289.889 82.4972 289.889 73.3408V55.8074C289.889 46.651 283.256 39.248 275.063 39.248H262.578ZM275.063 82.8868H262.578C257.896 82.8868 253.994 78.6008 253.994 73.3408V55.8074C253.994 50.5473 257.896 46.2614 262.578 46.2614H275.063C279.745 46.2614 283.647 50.5473 283.647 55.8074V73.3408C283.647 78.6008 279.94 82.8868 275.063 82.8868ZM262.578 47.2355C258.286 47.2355 254.97 51.1318 254.97 55.8074V73.3408C254.97 78.0164 258.481 81.9127 262.578 81.9127H275.063C279.355 81.9127 282.671 78.0164 282.671 73.3408V55.8074C282.671 51.1318 279.16 47.2355 275.063 47.2355H262.578Z" fill="white"/>
<path d="M244.826 119.512H293.01C297.107 119.512 300.423 116.2 300.423 112.109V74.7045C300.423 70.6134 297.107 67.3015 293.01 67.3015H244.826C240.729 67.3015 237.413 70.6134 237.413 74.7045V112.109C237.413 116.2 240.729 119.512 244.826 119.512Z" fill="url(#paint11_linear_100_2499)"/>
<path d="M294.376 119.902H276.819C276.624 119.902 276.429 119.707 276.429 119.512C276.429 119.317 276.624 119.123 276.819 119.123H294.376C297.497 119.123 299.838 116.59 299.838 113.668V78.6008C299.838 78.406 300.033 78.2112 300.228 78.2112C300.424 78.2112 300.619 78.406 300.619 78.6008V113.473C300.814 116.98 297.888 119.902 294.376 119.902Z" fill="#243762"/>
<path opacity="0.25" d="M249.117 114.837H288.718C292.815 114.837 296.131 111.525 296.131 107.434V81.7179C296.131 77.6268 292.815 74.3149 288.718 74.3149H249.117C245.02 74.3149 241.704 77.6268 241.704 81.7179V107.434C241.704 111.525 245.02 114.837 249.117 114.837Z" fill="white"/>
<path d="M261.603 88.9261C261.603 84.8349 264.919 81.5231 269.016 81.5231C273.112 81.5231 276.429 84.8349 276.429 88.9261C276.429 92.238 274.283 94.9654 271.161 95.9395V105.485H266.87V95.9395C263.748 94.9654 261.603 92.238 261.603 88.9261Z" fill="#86533D"/>
<path d="M327.345 233.869H43.503C43.1128 233.869 42.7227 233.48 42.7227 233.09C42.7227 232.7 43.1128 232.311 43.503 232.311H327.54C327.93 232.311 328.32 232.7 328.32 233.09C328.32 233.48 327.93 233.869 327.345 233.869Z" fill="url(#paint12_linear_100_2499)"/>
<path d="M311.933 73.5356C311.933 79.9646 306.666 85.4194 300.033 85.4194C293.596 85.4194 288.133 80.1594 288.133 73.5356C288.133 67.1067 293.4 61.6519 300.033 61.6519C306.666 61.8467 311.933 67.1067 311.933 73.5356Z" fill="#8F9BBA"/>
<path d="M288.914 84.8349C288.719 84.6401 288.719 84.2505 288.914 84.0556C289.109 83.8608 289.499 83.8608 289.694 84.0556C295.547 89.9001 305.106 89.9001 310.958 84.0556C316.81 78.2112 316.81 68.6652 310.958 62.8207C305.106 56.9762 295.547 56.9762 289.694 62.8207C289.499 63.0155 289.109 63.0155 288.914 62.8207C288.719 62.6259 288.719 62.2362 288.914 62.0414C295.156 55.8073 305.301 55.8073 311.543 62.0414C317.786 68.2755 317.786 78.406 311.543 84.6401C305.301 91.069 295.156 91.069 288.914 84.8349Z" fill="url(#paint13_linear_100_2499)"/>
<path d="M300.033 79.9646C299.643 79.9646 299.253 79.7698 298.863 79.5749C298.473 79.3801 298.473 78.9905 298.473 78.6009C298.473 78.2112 298.668 77.8216 298.863 77.6268C299.253 77.432 299.448 77.2371 300.033 77.2371C300.423 77.2371 300.814 77.432 301.204 77.6268C301.399 77.8216 301.594 78.2112 301.594 78.6009C301.594 78.9905 301.399 79.3801 301.204 79.5749C300.814 79.9646 300.423 79.9646 300.033 79.9646ZM301.399 68.8601L301.204 74.8994C301.204 75.4838 300.619 76.0682 300.033 76.0682C299.448 76.0682 298.863 75.6786 298.863 74.8994L298.668 68.8601C298.668 68.2756 299.253 67.6912 299.838 67.6912H300.228C300.814 67.6912 301.399 68.2756 301.399 68.8601Z" fill="white"/>
</g>
<defs>
<linearGradient id="paint0_linear_100_2499" x1="84.8108" y1="140.28" x2="286.671" y2="140.28" gradientUnits="userSpaceOnUse">
<stop stop-color="#87533D"/>
<stop offset="1" stop-color="#686B2D"/>
</linearGradient>
<linearGradient id="paint1_linear_100_2499" x1="171.925" y1="202.679" x2="198.668" y2="202.679" gradientUnits="userSpaceOnUse">
<stop stop-color="#87533D"/>
<stop offset="1" stop-color="#686B2D"/>
</linearGradient>
<linearGradient id="paint2_linear_100_2499" x1="182.963" y1="78.5765" x2="187.321" y2="78.5765" gradientUnits="userSpaceOnUse">
<stop stop-color="#87533D"/>
<stop offset="1" stop-color="#686B2D"/>
</linearGradient>
<linearGradient id="paint3_linear_100_2499" x1="58.9931" y1="228.748" x2="312.557" y2="228.748" gradientUnits="userSpaceOnUse">
<stop stop-color="#87533D"/>
<stop offset="1" stop-color="#686B2D"/>
</linearGradient>
<linearGradient id="paint4_linear_100_2499" x1="93.6801" y1="140.702" x2="277.712" y2="140.702" gradientUnits="userSpaceOnUse">
<stop stop-color="#87533D"/>
<stop offset="1" stop-color="#686B2D"/>
</linearGradient>
<linearGradient id="paint5_linear_100_2499" x1="59.5781" y1="216.234" x2="313.142" y2="216.234" gradientUnits="userSpaceOnUse">
<stop stop-color="#87533D"/>
<stop offset="1" stop-color="#686B2D"/>
</linearGradient>
<linearGradient id="paint6_linear_100_2499" x1="145.24" y1="132.011" x2="163.862" y2="132.011" gradientUnits="userSpaceOnUse">
<stop stop-color="#87533D"/>
<stop offset="1" stop-color="#686B2D"/>
</linearGradient>
<linearGradient id="paint7_linear_100_2499" x1="206.691" y1="132.011" x2="225.312" y2="132.011" gradientUnits="userSpaceOnUse">
<stop stop-color="#87533D"/>
<stop offset="1" stop-color="#686B2D"/>
</linearGradient>
<linearGradient id="paint8_linear_100_2499" x1="159.312" y1="156.357" x2="211.214" y2="156.357" gradientUnits="userSpaceOnUse">
<stop stop-color="#87533D"/>
<stop offset="1" stop-color="#686B2D"/>
</linearGradient>
<linearGradient id="paint9_linear_100_2499" x1="135.253" y1="91.4514" x2="276.694" y2="91.4513" gradientUnits="userSpaceOnUse">
<stop stop-color="#87533D"/>
<stop offset="1" stop-color="#686B2D"/>
</linearGradient>
<linearGradient id="paint10_linear_100_2499" x1="247.139" y1="64.2527" x2="291.116" y2="64.2527" gradientUnits="userSpaceOnUse">
<stop stop-color="#87533D"/>
<stop offset="1" stop-color="#686B2D"/>
</linearGradient>
<linearGradient id="paint11_linear_100_2499" x1="237.088" y1="93.0806" x2="301.073" y2="93.0806" gradientUnits="userSpaceOnUse">
<stop stop-color="#87533D"/>
<stop offset="1" stop-color="#686B2D"/>
</linearGradient>
<linearGradient id="paint12_linear_100_2499" x1="41.2505" y1="233.08" x2="331.264" y2="233.08" gradientUnits="userSpaceOnUse">
<stop stop-color="#87533D"/>
<stop offset="1" stop-color="#686B2D"/>
</linearGradient>
<linearGradient id="paint13_linear_100_2499" x1="288.626" y1="73.2254" x2="316.508" y2="73.2254" gradientUnits="userSpaceOnUse">
<stop stop-color="#87533D"/>
<stop offset="1" stop-color="#686B2D"/>
</linearGradient>
<clipPath id="clip0_100_2499">
<rect width="341" height="233" fill="white" transform="translate(0 0.869141)"/>
</clipPath>
</defs>
</svg>
