<svg width="16" height="16" viewBox="0 0 16 16" fill="none" xmlns="http://www.w3.org/2000/svg">
<path fill-rule="evenodd" clip-rule="evenodd" d="M10.2778 8.32684H5.38916C5.11249 8.32684 4.88916 8.10284 4.88916 7.82684C4.88916 7.55084 5.11249 7.32684 5.38916 7.32684H10.2778C10.5538 7.32684 10.7778 7.55084 10.7778 7.82684C10.7778 8.10284 10.5538 8.32684 10.2778 8.32684Z" fill="#86533C"/>
<path fill-rule="evenodd" clip-rule="evenodd" d="M4.70941 1.66669C2.86141 1.66669 1.66675 2.93135 1.66675 4.89002V10.7767C1.66675 12.7354 2.86141 14 4.70941 14H10.9574C12.8061 14 14.0001 12.7354 14.0001 10.7767V4.89002C14.0001 2.93135 12.8061 1.66669 10.9574 1.66669H4.70941ZM10.9574 15H4.70941C2.29141 15 0.666748 13.3027 0.666748 10.7767V4.89002C0.666748 2.36402 2.29141 0.666687 4.70941 0.666687H10.9574C13.3754 0.666687 15.0001 2.36402 15.0001 4.89002V10.7767C15.0001 13.3027 13.3754 15 10.9574 15Z" fill="#86533C"/>
</svg>
