<svg width="157" height="146" viewBox="0 0 157 146" fill="none" xmlns="http://www.w3.org/2000/svg">
<path d="M108.078 63.9273C110.209 65.8644 110.366 69.1622 108.429 71.293L75.2473 107.793C74.2444 108.896 72.817 109.517 71.326 109.499C69.8349 109.481 68.4232 108.826 67.4471 107.698L48.4862 85.7986C46.6012 83.6213 46.838 80.3283 49.0152 78.4433C51.1924 76.5584 54.4852 76.7953 56.3702 78.9723L71.4842 96.4291L100.712 64.278C102.65 62.1472 105.947 61.99 108.078 63.9273Z" fill="url(#paint0_linear_114_7720)"/>
<path fill-rule="evenodd" clip-rule="evenodd" d="M62.0116 7.88375C63.4854 5.40977 62.6746 2.20936 60.2007 0.735495C57.7265 -0.738394 54.5263 0.0723704 53.0525 2.54638L39.0371 26.0723C15.4722 26.1153 -2.82421 46.6696 0.725004 69.8001L7.4458 113.6C10.3169 132.311 26.7113 146 45.832 146H111.168C130.288 146 146.683 132.311 149.554 113.6L156.275 69.8001C159.824 46.6696 141.528 26.1153 117.963 26.0723L103.948 2.54638C102.474 0.0723704 99.2733 -0.738394 96.7993 0.735495C94.3252 2.20936 93.5144 5.40977 94.9884 7.88375L105.824 26.072H51.1759L62.0116 7.88375ZM41.9036 36.5005C41.9646 36.5018 42.0256 36.5018 42.0866 36.5005H114.913C114.974 36.5018 115.035 36.5018 115.096 36.5005H117.889C135.377 36.5005 148.509 51.6508 145.967 68.2184L139.246 112.018C137.182 125.468 125.315 135.571 111.168 135.571H45.832C31.6847 135.571 19.8175 125.468 17.7537 112.018L11.0329 68.2184C8.49071 51.6508 21.623 36.5005 39.1111 36.5005H41.9036Z" fill="url(#paint1_linear_114_7720)"/>
<defs>
<linearGradient id="paint0_linear_114_7720" x1="46.8913" y1="85.7421" x2="110.43" y2="85.7421" gradientUnits="userSpaceOnUse">
<stop stop-color="#87533D"/>
<stop offset="1" stop-color="#686B2D"/>
</linearGradient>
<linearGradient id="paint1_linear_114_7720" x1="-0.523155" y1="72.0875" x2="158.329" y2="72.0875" gradientUnits="userSpaceOnUse">
<stop stop-color="#87533D"/>
<stop offset="1" stop-color="#686B2D"/>
</linearGradient>
</defs>
</svg>
