<svg width="16" height="16" viewBox="0 0 16 16" fill="none" xmlns="http://www.w3.org/2000/svg">
<path fill-rule="evenodd" clip-rule="evenodd" d="M7.83301 10.7696C7.55701 10.7696 7.33301 10.5456 7.33301 10.2696V5.38489C7.33301 5.10889 7.55701 4.88489 7.83301 4.88489C8.10901 4.88489 8.33301 5.10889 8.33301 5.38489V10.2696C8.33301 10.5456 8.10901 10.7696 7.83301 10.7696Z" fill="#86533C"/>
<path fill-rule="evenodd" clip-rule="evenodd" d="M10.2773 8.32684H5.38867C5.11201 8.32684 4.88867 8.10284 4.88867 7.82684C4.88867 7.55084 5.11201 7.32684 5.38867 7.32684H10.2773C10.5533 7.32684 10.7773 7.55084 10.7773 7.82684C10.7773 8.10284 10.5533 8.32684 10.2773 8.32684Z" fill="#86533C"/>
<path fill-rule="evenodd" clip-rule="evenodd" d="M4.70917 1.66669C2.86117 1.66669 1.6665 2.93135 1.6665 4.89002V10.7767C1.6665 12.7354 2.86117 14 4.70917 14H10.9572C12.8058 14 13.9998 12.7354 13.9998 10.7767V4.89002C13.9998 2.93135 12.8058 1.66669 10.9572 1.66669H4.70917ZM10.9572 15H4.70917C2.29117 15 0.666504 13.3027 0.666504 10.7767V4.89002C0.666504 2.36402 2.29117 0.666687 4.70917 0.666687H10.9572C13.3752 0.666687 14.9998 2.36402 14.9998 4.89002V10.7767C14.9998 13.3027 13.3752 15 10.9572 15Z" fill="#86533C"/>
</svg>
