<svg width="24" height="25" viewBox="0 0 24 25" fill="none" xmlns="http://www.w3.org/2000/svg">
<g clip-path="url(#clip0_574_8209)">
<path d="M12 12.5C13.5913 12.5 15.1174 11.8679 16.2426 10.7426C17.3679 9.61742 18 8.0913 18 6.5C18 4.9087 17.3679 3.38258 16.2426 2.25736C15.1174 1.13214 13.5913 0.5 12 0.5C10.4087 0.5 8.88258 1.13214 7.75736 2.25736C6.63214 3.38258 6 4.9087 6 6.5C6 8.0913 6.63214 9.61742 7.75736 10.7426C8.88258 11.8679 10.4087 12.5 12 12.5ZM16 6.5C16 7.56087 15.5786 8.57828 14.8284 9.32843C14.0783 10.0786 13.0609 10.5 12 10.5C10.9391 10.5 9.92172 10.0786 9.17157 9.32843C8.42143 8.57828 8 7.56087 8 6.5C8 5.43913 8.42143 4.42172 9.17157 3.67157C9.92172 2.92143 10.9391 2.5 12 2.5C13.0609 2.5 14.0783 2.92143 14.8284 3.67157C15.5786 4.42172 16 5.43913 16 6.5ZM24 22.5C24 24.5 22 24.5 22 24.5H2C2 24.5 0 24.5 0 22.5C0 20.5 2 14.5 12 14.5C22 14.5 24 20.5 24 22.5ZM22 22.492C21.998 22 21.692 20.52 20.336 19.164C19.032 17.86 16.578 16.5 12 16.5C7.42 16.5 4.968 17.86 3.664 19.164C2.308 20.52 2.004 22 2 22.492H22Z" fill="#F6F7FB"/>
</g>
<defs>
<clipPath id="clip0_574_8209">
<rect width="24" height="24" fill="white" transform="translate(0 0.5)"/>
</clipPath>
</defs>
</svg>
