<svg width="228" height="206" viewBox="0 0 228 206" fill="none" xmlns="http://www.w3.org/2000/svg">
<path fill-rule="evenodd" clip-rule="evenodd" d="M105.038 0.297016C137.425 -2.18533 170.984 10.9535 189.95 37.4127C208.059 62.676 202.241 95.7029 195.138 125.995C188.117 155.933 179.71 190.179 151.376 201.91C123.961 213.259 97.0202 190.651 70.3389 177.661C43.824 164.751 9.5391 157.533 1.68606 129.03C-6.36506 99.8079 16.0161 72.9013 34.9711 49.2914C53.7604 25.888 75.175 2.58595 105.038 0.297016Z" fill="#E1E9F8"/>
<path d="M191.908 48.2499L191.236 121.534C191.236 122.615 191.013 123.654 190.678 124.62C189.405 128.112 186.054 130.592 182.162 130.55L56.0032 129.826C52.1059 129.809 48.7918 127.251 47.5975 123.73C47.27 122.767 47.1042 121.757 47.1003 120.701L47.792 47.4461C47.8236 42.4327 51.8983 38.4166 56.8423 38.4262L182.996 39.1747C187.935 39.2091 191.935 43.2613 191.908 48.2499Z" fill="#098BD7"/>
<path d="M190.653 124.616C189.38 128.107 186.03 130.587 182.137 130.545L56.0036 129.826C52.1063 129.809 48.7922 127.251 47.5979 123.73L122.801 86.7217L190.653 124.616Z" fill="#006FC8"/>
<path d="M191.908 48.2499L120.681 98.1863L47.7449 51.1953L47.792 47.4461C47.8236 42.4327 51.8983 38.4166 56.8423 38.4261L182.996 39.1747C187.935 39.2091 191.935 43.2613 191.908 48.2499Z" fill="#309AEC"/>
<path d="M221.719 83.5838C220.122 92.0145 211.861 97.8597 203.163 96.2127C194.721 94.614 188.864 86.3598 190.509 77.6737C192.105 69.2431 200.367 63.3978 209.065 65.0449C217.714 66.9475 223.315 75.1532 221.719 83.5838Z" fill="white"/>
<path d="M191.207 96.2795C190.947 96.0188 190.948 95.4988 191.209 95.2394C191.47 94.9801 191.991 94.9813 192.251 95.242C200.042 103.062 212.8 103.093 220.63 95.3118C228.461 87.5306 228.492 74.79 220.7 66.9704C212.908 59.1508 200.151 59.1194 192.32 66.9006C192.059 67.16 191.539 67.1587 191.279 66.898C191.019 66.6374 191.02 66.1173 191.281 65.858C199.634 57.5581 213.173 57.5914 221.484 65.9323C229.795 74.2732 229.762 87.7939 221.41 96.0938C213.057 104.654 199.518 104.62 191.207 96.2795Z" fill="#0E2366"/>
<path fill-rule="evenodd" clip-rule="evenodd" d="M203.433 87.182C202.977 87.0957 202.574 86.8259 202.314 86.4312L198.828 81.13C198.29 80.3103 198.503 79.1843 199.305 78.6207C200.105 78.0543 201.196 78.2609 201.736 79.0811L204.244 82.8958L213.47 76.3902C214.273 75.8243 215.359 76.0299 215.899 76.8502C216.439 77.6704 216.226 78.794 215.424 79.3599L204.746 86.8916C204.362 87.1644 203.889 87.2684 203.433 87.182Z" fill="#21D3FF"/>
</svg>
