<svg width="272" height="276" viewBox="0 0 272 276" fill="none" xmlns="http://www.w3.org/2000/svg">
<path fill-rule="evenodd" clip-rule="evenodd" d="M98.0647 41.2783C123.717 28.9791 153.462 30.1739 179.176 42.3424C202.784 53.5142 214.554 77.1939 224.762 101.234C237.215 130.561 259.671 163.876 242.054 190.423C224.376 217.064 184.817 207.514 152.908 209.515C121.825 211.464 87.7742 222.208 64.46 201.559C39.3619 179.33 32.7961 142.041 39.6758 109.228C46.123 78.4773 69.7337 54.862 98.0647 41.2783Z" fill="#E1E9F8"/>
<rect x="95.5" y="161.5" width="153" height="30" rx="7.5" fill="white" stroke="#B0BBD5"/>
<circle cx="110" cy="176" r="3" fill="#68769F"/>
<circle cx="124" cy="176" r="3" fill="#68769F"/>
<circle cx="138" cy="176" r="3" fill="#68769F"/>
<circle cx="152" cy="176" r="3" fill="#68769F"/>
<circle cx="166" cy="176" r="3" fill="#68769F"/>
<circle cx="180" cy="176" r="3" fill="#68769F"/>
<circle cx="194" cy="176" r="3" fill="#68769F"/>
<circle cx="208" cy="176" r="3" fill="#68769F"/>
<path d="M88.2783 86.8027V63.4015C88.2783 50.9208 97.3911 40.7803 108.847 40.7803H125.511C136.706 40.7803 146.08 50.9208 146.08 63.4015V86.8027C146.08 99.2833 136.967 109.424 125.511 109.424H108.847C97.3911 109.424 88.2783 99.2833 88.2783 86.8027ZM108.587 51.4408C102.598 51.4408 97.6515 56.9011 97.6515 63.4015V86.8027C97.6515 93.303 102.598 98.7633 108.587 98.7633H125.25C131.239 98.7633 136.186 93.303 136.186 86.8027V63.4015C136.186 56.9011 131.239 51.4408 125.25 51.4408H108.587Z" fill="#0E2366"/>
<path d="M125.25 110.204H108.587C96.8703 110.204 87.4971 99.8031 87.4971 86.8025V63.4012C87.4971 50.6606 96.8703 40 108.587 40H125.25C136.967 40 146.34 50.4005 146.34 63.4012V86.8025C146.34 99.5431 136.967 110.204 125.25 110.204ZM108.587 41.3001C97.6514 41.3001 88.7989 51.1806 88.7989 63.4012V86.8025C88.7989 99.0231 97.6514 108.904 108.587 108.904H125.25C136.186 108.904 145.038 99.0231 145.038 86.8025V63.4012C145.038 51.1806 136.186 41.3001 125.25 41.3001H108.587ZM125.25 99.5431H108.587C102.338 99.5431 97.1306 93.8228 97.1306 86.8025V63.4012C97.1306 56.3809 102.338 50.6606 108.587 50.6606H125.25C131.499 50.6606 136.706 56.3809 136.706 63.4012V86.8025C136.706 93.8228 131.759 99.5431 125.25 99.5431ZM108.587 51.9606C102.859 51.9606 98.4324 57.1609 98.4324 63.4012V86.8025C98.4324 93.0428 103.119 98.243 108.587 98.243H125.25C130.978 98.243 135.404 93.0428 135.404 86.8025V63.4012C135.404 57.1609 130.718 51.9606 125.25 51.9606H108.587Z" fill="white"/>
<path d="M84.8939 148.426H149.204C154.672 148.426 159.098 144.006 159.098 138.545V88.6227C159.098 83.1624 154.672 78.7422 149.204 78.7422H84.8939C79.4262 78.7422 75 83.1624 75 88.6227V138.545C75 144.006 79.4262 148.426 84.8939 148.426Z" fill="#309AEC"/>
<path d="M151.028 148.946H127.595C127.335 148.946 127.074 148.686 127.074 148.426C127.074 148.166 127.335 147.906 127.595 147.906H151.028C155.194 147.906 158.318 144.525 158.318 140.625V93.8228C158.318 93.5628 158.579 93.3027 158.839 93.3027C159.099 93.3027 159.36 93.5628 159.36 93.8228V140.365C159.62 145.045 155.714 148.946 151.028 148.946Z" fill="#243762"/>
<path opacity="0.25" d="M90.6214 142.185H143.476C148.943 142.185 153.37 137.765 153.37 132.305V97.9831C153.37 92.5228 148.943 88.1025 143.476 88.1025H90.6214C85.1538 88.1025 80.7275 92.5228 80.7275 97.9831V132.305C80.7275 137.765 85.1538 142.185 90.6214 142.185Z" fill="white"/>
<path d="M107.285 107.603C107.285 102.143 111.711 97.7227 117.179 97.7227C122.647 97.7227 127.073 102.143 127.073 107.603C127.073 112.023 124.209 115.664 120.043 116.964V129.704H114.315V116.964C110.149 115.664 107.285 112.023 107.285 107.603Z" fill="#243762"/>
<path d="M174.46 87.063C174.46 95.6434 167.43 102.924 158.578 102.924C149.986 102.924 142.695 95.9034 142.695 87.063C142.695 78.4825 149.725 71.2021 158.578 71.2021C167.43 71.4622 174.46 78.4825 174.46 87.063Z" fill="white"/>
<path d="M143.736 102.143C143.476 101.883 143.476 101.363 143.736 101.103C143.997 100.843 144.517 100.843 144.778 101.103C152.589 108.904 165.347 108.904 173.158 101.103C180.969 93.3029 180.969 80.5622 173.158 72.7618C165.347 64.9614 152.589 64.9614 144.778 72.7618C144.517 73.0218 143.997 73.0218 143.736 72.7618C143.476 72.5018 143.476 71.9818 143.736 71.7218C152.068 63.4013 165.607 63.4013 173.939 71.7218C182.27 80.0422 182.27 93.5629 173.939 101.883C165.607 110.464 152.068 110.464 143.736 102.143Z" fill="#0E2366"/>
<path d="M168.739 85.7777C168.484 84.5301 167.985 83.345 167.271 82.2904C166.57 81.2529 165.676 80.3593 164.639 79.6579C163.584 78.9444 162.399 78.4456 161.152 78.19C160.496 78.0571 159.829 77.9918 159.16 77.995V75.8262L154.854 79.0762L159.16 82.3262V80.1617C159.685 80.1595 160.209 80.2093 160.715 80.3133C161.685 80.512 162.606 80.8996 163.425 81.4541C164.234 81.9993 164.93 82.6952 165.475 83.5038C166.322 84.7553 166.773 86.232 166.771 87.7428C166.771 88.7567 166.568 89.7603 166.175 90.6949C165.984 91.1451 165.75 91.576 165.477 91.9819C165.203 92.3853 164.892 92.7622 164.548 93.1075C163.499 94.1542 162.168 94.8722 160.717 95.1734C159.708 95.3771 158.669 95.3771 157.66 95.1734C156.69 94.9745 155.769 94.5865 154.948 94.0316C154.141 93.4869 153.446 92.7917 152.901 91.9841C152.055 90.7313 151.604 89.2543 151.604 87.7428H149.438C149.439 89.686 150.019 91.5847 151.105 93.1963C151.807 94.2322 152.699 95.1248 153.735 95.8267C155.345 96.9159 157.244 97.4964 159.188 97.4928C159.848 97.4928 160.506 97.4264 161.153 97.2946C162.399 97.0372 163.584 96.5385 164.639 95.8267C165.157 95.4775 165.64 95.0788 166.081 94.6361C166.522 94.1934 166.921 93.7103 167.272 93.1931C168.361 91.5841 168.941 89.6853 168.938 87.7428C168.937 87.0828 168.871 86.4244 168.739 85.7777Z" fill="#0E2366"/>
</svg>
