<svg width="24" height="24" viewBox="0 0 24 24" fill="none" xmlns="http://www.w3.org/2000/svg">
<g clip-path="url(#clip0_874_1221)">
<path d="M9.65925 19.3103C11.8044 19.3104 13.8882 18.5947 15.5806 17.2765L21.9653 23.6613C22.4423 24.1219 23.2023 24.1087 23.663 23.6317C24.1123 23.1665 24.1123 22.4289 23.663 21.9636L17.2782 15.5789C20.5491 11.3683 19.7874 5.30344 15.5769 2.03253C11.3663 -1.23837 5.30149 -0.476692 2.03058 3.73385C-1.24033 7.94439 -0.478646 14.0093 3.7319 17.2802C5.42702 18.5971 7.51269 19.3114 9.65925 19.3103ZM4.52915 4.52741C7.36245 1.69405 11.9561 1.694 14.7895 4.5273C17.6229 7.36061 17.6229 11.9543 14.7896 14.7877C11.9563 17.621 7.36261 17.6211 4.52925 14.7878C4.5292 14.7877 4.5292 14.7877 4.52915 14.7877C1.69584 11.975 1.67915 7.39805 4.49181 4.56474C4.50424 4.55226 4.51667 4.53984 4.52915 4.52741Z" fill="black"/>
</g>
<defs>
<clipPath id="clip0_874_1221">
<rect width="24" height="24" fill="white"/>
</clipPath>
</defs>
</svg>
