<svg width="75" height="74" viewBox="0 0 75 74" fill="none" xmlns="http://www.w3.org/2000/svg">
<path fill-rule="evenodd" clip-rule="evenodd" d="M37.8333 3.85413C35.9679 3.85413 34.2505 4.31663 32.3727 5.09363C30.5567 5.84596 28.4477 6.95288 25.8237 8.33113L19.4474 11.6765C16.2253 13.3662 13.6508 14.7198 11.6558 16.0487C9.59617 17.427 8.00517 18.8761 6.84892 20.8402C5.69575 22.7981 5.17775 24.9195 4.928 27.4447C4.6875 29.896 4.6875 32.9084 4.6875 36.7009V37.299C4.6875 41.0915 4.6875 44.104 4.928 46.5552C5.17775 49.0835 5.69883 51.2018 6.84892 53.1597C8.00517 55.1238 9.59308 56.573 11.6589 57.9512C13.6477 59.2801 16.2253 60.6337 19.4474 62.3234L25.8237 65.6688C28.4477 67.047 30.5567 68.154 32.3727 68.9063C34.2536 69.6833 35.9679 70.1458 37.8333 70.1458C39.6987 70.1458 41.4162 69.6833 43.2939 68.9063C45.11 68.154 47.219 67.047 49.8429 65.6688L56.2192 62.3265C59.4413 60.6337 62.0159 59.2801 64.0077 57.9512C66.0736 56.573 67.6615 55.1238 68.8177 53.1597C69.9709 51.2018 70.4889 49.0805 70.7387 46.5552C70.9792 44.104 70.9792 41.0915 70.9792 37.299V36.7009C70.9792 32.9084 70.9792 29.896 70.7387 27.4447C70.4889 24.9164 69.9678 22.7981 68.8177 20.8402C67.6615 18.8761 66.0736 17.427 64.0077 16.0487C62.019 14.7198 59.4413 13.3662 56.2192 11.6765L49.8429 8.33113C47.219 6.95288 45.11 5.84596 43.2939 5.09363C41.4131 4.31663 39.6987 3.85413 37.8333 3.85413ZM27.8742 12.4751C30.6183 11.0352 32.5423 10.03 34.1395 9.37021C35.6935 8.72579 36.7881 8.47913 37.8333 8.47913C38.8817 8.47913 39.9732 8.72579 41.5272 9.37021C43.1243 10.03 45.0452 11.0352 47.7894 12.4751L53.9561 15.7126C57.3169 17.4732 59.6757 18.7158 61.4424 19.8936C62.3119 20.4764 62.9933 21.016 63.5483 21.5586L53.2778 26.6924L27.0694 12.8975L27.8742 12.4751ZM22.2471 15.429L21.7106 15.7126C18.3497 17.4732 15.991 18.7158 14.2273 19.8936C13.4748 20.3815 12.7697 20.9389 12.1214 21.5586L37.8333 34.4161L48.1841 29.2361L22.8822 15.9223C22.6433 15.7963 22.4283 15.6293 22.2471 15.429ZM9.89217 25.6132C9.738 26.273 9.61775 27.0223 9.53142 27.8949C9.31558 30.0964 9.3125 32.8806 9.3125 36.818V37.1788C9.3125 41.1193 9.3125 43.9035 9.53142 46.102C9.74417 48.251 10.1481 49.6416 10.8357 50.8133C11.5202 51.9757 12.5099 52.9593 14.2273 54.1063C15.991 55.2841 18.3497 56.5267 21.7106 58.2873L27.8772 61.5248C30.6214 62.9647 32.5423 63.9699 34.1395 64.6297C34.6452 64.8394 35.0984 65.0059 35.5208 65.1385V38.4275L9.89217 25.6132ZM40.1458 65.1354C40.5682 65.0059 41.0215 64.8394 41.5272 64.6297C43.1243 63.9699 45.0452 62.9647 47.7894 61.5248L53.9561 58.2873C57.3169 56.5236 59.6757 55.2841 61.4424 54.1063C63.1567 52.9593 64.1465 51.9757 64.8341 50.8133C65.5217 49.6416 65.9225 48.2541 66.1353 46.102C66.3511 43.9035 66.3542 41.1193 66.3542 37.1819V36.8211C66.3542 32.8806 66.3542 30.0964 66.1353 27.898C66.0658 27.1302 65.9453 26.368 65.7745 25.6163L55.5625 30.7192V40.0833C55.5625 40.6966 55.3189 41.2848 54.8852 41.7185C54.4515 42.1522 53.8633 42.3958 53.25 42.3958C52.6367 42.3958 52.0485 42.1522 51.6148 41.7185C51.1811 41.2848 50.9375 40.6966 50.9375 40.0833V33.0317L40.1458 38.4275V65.1354Z" fill="black"/>
</svg>
