<svg width="74" height="74" viewBox="0 0 74 74" fill="none" xmlns="http://www.w3.org/2000/svg">
<path d="M36.9997 30.8333L24.6663 13.5666L29.5997 6.16663H44.3997L49.333 13.5666L36.9997 30.8333ZM47.7913 20.9666L44.0913 26.2083C50.8747 28.9833 55.4997 35.4583 55.4997 43.1666C55.4997 48.0731 53.5506 52.7787 50.0812 56.2481C46.6117 59.7175 41.9062 61.6666 36.9997 61.6666C32.0932 61.6666 27.3876 59.7175 23.9182 56.2481C20.4488 52.7787 18.4997 48.0731 18.4997 43.1666C18.4997 35.4583 23.1247 28.9833 29.908 26.2083L26.208 20.9666C17.883 24.975 12.333 33.3 12.333 43.1666C12.333 49.7086 14.9318 55.9827 19.5577 60.6086C24.1836 65.2345 30.4577 67.8333 36.9997 67.8333C43.5417 67.8333 49.8157 65.2345 54.4416 60.6086C59.0675 55.9827 61.6663 49.7086 61.6663 43.1666C61.6663 33.3 56.1163 24.975 47.7913 20.9666Z" fill="black"/>
</svg>
