<svg width="74" height="74" viewBox="0 0 74 74" fill="none" xmlns="http://www.w3.org/2000/svg">
<path d="M9.25 37H37V41.625H9.25V37ZM4.625 25.4375H27.75V30.0625H4.625V25.4375Z" fill="black"/>
<path d="M69.1882 38.4014L62.2507 22.2139C62.0726 21.7978 61.7763 21.4432 61.3985 21.1941C61.0207 20.9449 60.578 20.8123 60.1255 20.8125H53.188V16.1875C53.188 15.5742 52.9443 14.986 52.5107 14.5523C52.077 14.1186 51.4888 13.875 50.8755 13.875H13.8755V18.5H48.563V47.5358C47.5092 48.1476 46.5871 48.9621 45.8496 49.9321C45.1122 50.9021 44.5741 52.0085 44.2663 53.1875H29.7346C29.1717 51.0076 27.8332 49.1078 25.9698 47.8442C24.1065 46.5807 21.8462 46.04 19.6128 46.3237C17.3793 46.6074 15.326 47.6959 13.8377 49.3852C12.3494 51.0745 11.5283 53.2486 11.5283 55.5C11.5283 57.7514 12.3494 59.9255 13.8377 61.6148C15.326 63.3041 17.3793 64.3926 19.6128 64.6763C21.8462 64.96 24.1065 64.4193 25.9698 63.1558C27.8332 61.8922 29.1717 59.9924 29.7346 57.8125H44.2663C44.7694 59.7972 45.9198 61.5574 47.5357 62.8148C49.1516 64.0722 51.1405 64.7549 53.188 64.7549C55.2354 64.7549 57.2244 64.0722 58.8402 62.8148C60.4561 61.5574 61.6065 59.7972 62.1096 57.8125H67.063C67.6763 57.8125 68.2645 57.5689 68.6982 57.1352C69.1318 56.7015 69.3755 56.1133 69.3755 55.5V39.3125C69.3756 38.9992 69.3118 38.6892 69.1882 38.4014ZM20.813 60.125C19.8982 60.125 19.004 59.8537 18.2435 59.3455C17.4829 58.8373 16.8901 58.115 16.54 57.2699C16.19 56.4248 16.0984 55.4949 16.2768 54.5977C16.4553 53.7005 16.8958 52.8764 17.5426 52.2296C18.1894 51.5828 19.0135 51.1423 19.9107 50.9639C20.8078 50.7854 21.7378 50.877 22.5829 51.2271C23.428 51.5771 24.1503 52.1699 24.6585 52.9305C25.1667 53.6911 25.438 54.5853 25.438 55.5C25.4367 56.7262 24.9491 57.9019 24.082 58.769C23.2149 59.6361 22.0392 60.1238 20.813 60.125ZM53.188 25.4375H58.5992L63.5572 37H53.188V25.4375ZM53.188 60.125C52.2732 60.125 51.379 59.8537 50.6185 59.3455C49.8579 58.8373 49.2651 58.115 48.915 57.2699C48.565 56.4248 48.4734 55.4949 48.6518 54.5977C48.8303 53.7005 49.2708 52.8764 49.9176 52.2296C50.5644 51.5828 51.3885 51.1423 52.2857 50.9639C53.1828 50.7854 54.1128 50.877 54.9579 51.2271C55.803 51.5771 56.5253 52.1699 57.0335 52.9305C57.5417 53.6911 57.813 54.5853 57.813 55.5C57.8117 56.7262 57.3241 57.9019 56.457 58.769C55.5899 59.6361 54.4142 60.1238 53.188 60.125ZM64.7505 53.1875H62.1096C61.6002 51.2067 60.4479 49.4509 58.8333 48.1954C57.2188 46.9399 55.2332 46.2557 53.188 46.25V41.625H64.7505V53.1875Z" fill="black"/>
</svg>
