<svg width="75" height="74" viewBox="0 0 75 74" fill="none" xmlns="http://www.w3.org/2000/svg">
<g clip-path="url(#clip0_59_1058)">
<path d="M29.1285 0.535034C25.4609 0.534661 21.8292 1.25672 18.4407 2.65999C15.0521 4.06326 11.9732 6.12025 9.3797 8.7135C6.78618 11.3067 4.72888 14.3855 3.32527 17.7738C1.92165 21.1622 1.19922 24.7939 1.19922 28.4615C1.19885 32.1293 1.921 35.7613 3.32445 39.15C4.7279 42.5387 6.78514 45.6178 9.37869 48.2113C11.9722 50.8049 15.0513 52.8621 18.44 54.2656C21.8287 55.669 25.4607 56.3912 29.1285 56.3908C35.6462 56.3908 41.6317 54.0826 46.3848 50.3427L48.8751 52.8331C48.3638 53.8267 48.1827 54.9576 48.3583 56.0612C48.5338 57.1648 49.0569 58.1836 49.8514 58.9694L62.9266 72.1329C64.9559 74.165 68.2774 74.165 70.3095 72.1329L72.7999 69.6425C73.7749 68.6613 74.3222 67.3343 74.3222 65.951C74.3222 64.5678 73.7749 63.2407 72.7999 62.2596L59.6364 49.1843C58.8451 48.3952 57.8201 47.8826 56.7141 47.7226C55.608 47.5626 54.4798 47.7638 53.4973 48.2963L51.0069 45.806C54.2667 41.6923 56.3013 36.7433 56.8773 31.5263C57.4533 26.3094 56.5475 21.0357 54.2637 16.3099C51.9798 11.5842 48.4104 7.59772 43.9648 4.80762C39.5191 2.01751 34.3772 0.536723 29.1285 0.535034ZM29.1285 5.69227C35.1673 5.69227 40.9587 8.09116 45.2288 12.3612C49.4989 16.6313 51.8978 22.4227 51.8978 28.4615C51.8978 34.5003 49.4989 40.2917 45.2288 44.5618C40.9587 48.8318 35.1673 51.2307 29.1285 51.2307C23.0897 51.2307 17.2983 48.8318 13.0282 44.5618C8.75819 40.2917 6.3593 34.5003 6.3593 28.4615C6.3593 22.4227 8.75819 16.6313 13.0282 12.3612C17.2983 8.09116 23.0897 5.69227 29.1285 5.69227ZM14.7184 21.2579C13.2004 23.7167 12.3999 26.5509 12.4074 29.4406C12.404 31.4856 12.8043 33.5112 13.5854 35.4013C14.3664 37.2913 15.5128 39.0086 16.9589 40.4547C18.405 41.9007 20.1223 43.0471 22.0123 43.8282C23.9023 44.6093 25.9279 45.0096 27.973 45.0062C31.1879 44.9996 34.3233 44.0061 36.9554 42.16C36.2459 42.2258 35.5334 42.2543 34.8208 42.2454C32.1793 42.2522 29.5625 41.7369 27.1207 40.7293C24.6789 39.7216 22.4602 38.2414 20.5922 36.3736C18.7243 34.5059 17.2437 32.2875 16.2357 29.8458C15.2277 27.4042 14.7121 24.7874 14.7184 22.1459C14.7184 21.8499 14.7042 21.5539 14.7184 21.2579Z" fill="black"/>
</g>
<defs>
<clipPath id="clip0_59_1058">
<rect width="74" height="74" fill="white" transform="translate(0.666992)"/>
</clipPath>
</defs>
</svg>
