<svg width="163" height="111" viewBox="0 0 163 111" fill="none" xmlns="http://www.w3.org/2000/svg">
<g clip-path="url(#clip0_458_11050)">
<path d="M116.087 17.4941V7.86384C117.887 7.47971 119.239 5.88638 119.239 3.97656C119.239 1.77998 117.453 0 115.248 0C113.331 0 111.731 1.34445 111.346 3.14067H102.534C102.149 1.34716 100.55 0 98.6325 0C96.7155 0 95.1161 1.34445 94.7305 3.14067H85.9192C85.5336 1.34716 83.9343 0 82.0172 0C80.1002 0 78.5009 1.34445 78.1153 3.14067H69.304C68.9184 1.34716 67.319 0 65.402 0C63.485 0 61.8856 1.34445 61.5 3.14067H52.6887C52.3031 1.34716 50.7038 0 48.7867 0C46.5819 0 44.7952 1.77998 44.7952 3.97656C44.7952 5.88638 46.1447 7.47971 47.9477 7.86384V17.4941C46.1474 17.8783 44.7952 19.4716 44.7952 21.3814C44.7952 23.578 46.5819 25.358 48.7867 25.358C50.7092 25.358 52.3167 24.0027 52.6941 22.1957H69.399C69.7194 23.7241 70.9223 24.9306 72.4511 25.2633V32.8269C70.6562 33.2164 69.3148 34.807 69.3148 36.7088C69.3148 38.6105 70.6589 40.2011 72.4511 40.5906V49.9044C70.6562 50.294 69.3148 51.8846 69.3148 53.7863C69.3148 55.688 70.6589 57.2786 72.4511 57.6682V66.3003C70.6562 66.6898 69.3148 68.2804 69.3148 70.1822C69.3148 72.3787 71.1015 74.1587 73.3064 74.1587C75.2234 74.1587 76.8228 72.8143 77.2084 71.018H86.8261C87.2117 72.8116 88.8111 74.1587 90.7281 74.1587C92.933 74.1587 94.7197 72.3787 94.7197 70.1822C94.7197 68.2777 93.3756 66.6898 91.5834 66.3003V57.6682C93.3783 57.2786 94.7197 55.688 94.7197 53.7863C94.7197 51.8846 93.3756 50.294 91.5834 49.9044V40.5906C93.3783 40.2011 94.7197 38.6105 94.7197 36.7088C94.7197 34.807 93.3756 33.2164 91.5834 32.8269V25.2633C93.1149 24.9306 94.3151 23.7241 94.6355 22.1957H111.34C111.718 24 113.323 25.358 115.248 25.358C117.453 25.358 119.239 23.578 119.239 21.3814C119.239 19.4716 117.89 17.8783 116.087 17.4941ZM111.351 20.5239H94.6246C94.5703 20.2723 94.4916 20.0316 94.3911 19.8016L112.562 6.91163C113.075 7.37692 113.705 7.71506 114.411 7.86384V17.4941C112.888 17.8188 111.691 19.009 111.357 20.5239H111.351ZM89.9026 25.2714V32.8188C89.3351 32.9378 88.8138 33.1785 88.363 33.5113L76.7902 23.321C77.1133 22.7475 77.3007 22.0848 77.3007 21.3814C77.3007 19.1849 75.514 17.4049 73.3091 17.4049C73.0186 17.4049 72.7362 17.4373 72.4619 17.4968L67.7752 7.17133C68.5409 6.60595 69.0976 5.77547 69.304 4.81515H78.1153C78.5009 6.60866 80.1002 7.95582 82.0172 7.95582C82.3594 7.95582 82.6907 7.90712 83.0084 7.82597L88.249 18.2678C87.3285 18.9955 86.7338 20.1181 86.7338 21.3814C86.7338 23.2967 88.0915 24.8927 89.8999 25.2714H89.9026ZM86.8261 69.349H77.2084C77.1133 68.908 76.9422 68.4941 76.7142 68.1208L88.4689 57.0649C88.8952 57.3571 89.3813 57.5681 89.9026 57.679V66.2949C88.3657 66.6168 87.1547 67.8206 86.8261 69.349ZM87.3176 55.8476L75.5601 66.9062C75.1365 66.6168 74.6532 66.4085 74.1346 66.2976V57.6817C75.943 57.303 77.3007 55.7042 77.3007 53.7917C77.3007 53.0072 77.0699 52.2795 76.6761 51.6628L88.5368 40.0334C88.9468 40.3012 89.4057 40.4987 89.9026 40.6014V49.899C88.0942 50.2777 86.7365 51.8765 86.7365 53.789C86.7365 54.5437 86.951 55.2444 87.3176 55.8476ZM74.1346 32.8215V25.2741C74.7048 25.1551 75.2261 24.9116 75.6796 24.5789L87.2497 34.7665C86.9239 35.3427 86.7365 36.0054 86.7365 36.7115C86.7365 37.4959 86.9673 38.2236 87.3611 38.8404L75.5004 50.4698C75.0904 50.202 74.6315 50.0045 74.1346 49.9017V40.6042C75.943 40.2254 77.3007 38.6267 77.3007 36.7142C77.3007 34.8016 75.943 33.2029 74.1346 32.8242V32.8215ZM52.6887 4.81244H61.5C61.6086 5.32372 61.8177 5.79712 62.1028 6.21371L50.8531 17.9838C50.4784 17.7565 50.0684 17.5888 49.6258 17.4941V7.86384C51.1545 7.53652 52.3601 6.33814 52.686 4.81515L52.6887 4.81244ZM52.0777 19.1308L63.322 7.3661C63.9276 7.7367 64.639 7.95311 65.402 7.95311C65.6898 7.95311 65.9722 7.92065 66.2438 7.86384L70.9305 18.1921C70.1729 18.7547 69.6189 19.5744 69.4099 20.5239H52.6833C52.5719 20.018 52.3629 19.5473 52.0777 19.1308ZM84.5127 7.07665C85.2159 6.51398 85.7237 5.72137 85.9192 4.81244H94.7305C95.1161 6.60595 96.7155 7.95311 98.6325 7.95311C100.55 7.95311 102.149 6.60866 102.534 4.81244H111.346C111.4 5.06673 111.479 5.3129 111.582 5.54824L93.4082 18.4382C92.6995 17.7971 91.7599 17.4022 90.7281 17.4022C90.3941 17.4022 90.0683 17.4482 89.7587 17.5266L84.5154 7.07665H84.5127ZM115.245 1.67448C116.519 1.67448 117.556 2.70785 117.556 3.97656C117.556 5.24527 116.519 6.27863 115.245 6.27863C113.972 6.27863 112.934 5.24527 112.934 3.97656C112.934 2.70785 113.972 1.67448 115.245 1.67448ZM65.402 1.67448C66.6755 1.67448 67.7128 2.70785 67.7128 3.97656C67.7128 5.24527 66.6755 6.27863 65.402 6.27863C64.1285 6.27863 63.0912 5.24527 63.0912 3.97656C63.0912 2.70785 64.1285 1.67448 65.402 1.67448ZM70.9956 36.7115C70.9956 35.4427 72.0329 34.4094 73.3064 34.4094C74.5799 34.4094 75.6172 35.4427 75.6172 36.7115C75.6172 37.9802 74.5799 39.0135 73.3064 39.0135C72.0329 39.0135 70.9956 37.9802 70.9956 36.7115ZM73.3064 72.4896C72.0329 72.4896 70.9956 71.4563 70.9956 70.1876C70.9956 68.9189 72.0329 67.8855 73.3064 67.8855C74.5799 67.8855 75.6172 68.9189 75.6172 70.1876C75.6172 71.4563 74.5799 72.4896 73.3064 72.4896ZM93.0389 53.789C93.0389 55.0577 92.0016 56.0911 90.7281 56.0911C89.4546 56.0911 88.4173 55.0577 88.4173 53.789C88.4173 52.5203 89.4546 51.4869 90.7281 51.4869C92.0016 51.4869 93.0389 52.5203 93.0389 53.789ZM90.7281 23.6835C89.4546 23.6835 88.4173 22.6501 88.4173 21.3814C88.4173 20.1127 89.4546 19.0794 90.7281 19.0794C92.0016 19.0794 93.0389 20.1127 93.0389 21.3814C93.0389 22.6501 92.0016 23.6835 90.7281 23.6835Z" fill="url(#paint0_linear_458_11050)"/>
<path d="M0 91.8016H9.45486V110.949H13.3188V87.9521H0V91.8016Z" fill="url(#paint1_linear_458_11050)"/>
<path d="M31.5851 87.9521H16.2053V91.8016H31.5851V87.9521Z" fill="url(#paint2_linear_458_11050)"/>
<path d="M31.5851 107.1H16.2053V110.949H31.5851V107.1Z" fill="url(#paint3_linear_458_11050)"/>
<path d="M31.5851 97.5527H16.2053V101.378H31.5851V97.5527Z" fill="url(#paint4_linear_458_11050)"/>
<path d="M40.5753 94.036C41.246 93.3516 42.0688 92.7944 43.049 92.3669C43.9939 91.9909 44.9905 91.8016 46.0386 91.8016C48.1349 91.8016 49.946 92.5374 51.4747 94.009L54.2064 91.339C53.142 90.2786 51.9146 89.4481 50.5217 88.8503C49.164 88.2524 47.6705 87.9521 46.0386 87.9521C44.4067 87.9521 42.9567 88.2605 41.5827 88.8773C40.2087 89.4427 38.9705 90.2623 37.8735 91.3417C36.8091 92.4021 35.9836 93.6086 35.3998 94.9612C34.7807 96.3814 34.4712 97.8692 34.4712 99.4273V99.4544C34.4712 101.029 34.7807 102.517 35.3998 103.921C35.9674 105.238 36.7901 106.444 37.8735 107.54C38.9732 108.619 40.2087 109.439 41.5827 110.004C42.9567 110.621 44.442 110.93 46.0386 110.93C47.6352 110.93 49.164 110.629 50.5217 110.031C51.9119 109.434 53.1393 108.603 54.2064 107.543L51.4747 104.873C49.946 106.344 48.1349 107.08 46.0386 107.08C44.9742 107.08 43.9776 106.883 43.049 106.49C42.1909 106.166 41.3655 105.609 40.5753 104.821C39.872 104.121 39.329 103.317 38.9515 102.408C38.5388 101.467 38.3324 100.474 38.3324 99.4301C38.3324 98.3859 38.5388 97.4012 38.9515 96.4787C39.329 95.5888 39.8693 94.7772 40.5753 94.0414V94.036Z" fill="url(#paint5_linear_458_11050)"/>
<path d="M79.196 91.8016H88.6509V110.949H92.5149V87.9521H79.196V91.8016Z" fill="url(#paint6_linear_458_11050)"/>
<path d="M99.238 94.9854H95.3984V110.948H99.238V94.9854Z" fill="url(#paint7_linear_458_11050)"/>
<path d="M112.147 99.9388C113.04 98.6728 113.485 97.2283 113.485 95.6025C113.485 93.5331 112.739 91.726 111.245 90.1868C109.752 88.699 107.938 87.9551 105.809 87.9551H95.4011V91.8045H105.809C106.838 91.8045 107.732 92.1805 108.489 92.9352C109.263 93.6548 109.649 94.5448 109.649 95.6052C109.649 96.6656 109.263 97.607 108.489 98.3266C107.734 99.0786 106.841 99.4546 105.809 99.4546L102.382 99.4276L109.081 110.951H113.485L108.772 102.712C110.129 102.146 111.253 101.224 112.147 99.9388Z" fill="url(#paint8_linear_458_11050)"/>
<path d="M127.912 87.9521C124.716 87.9521 122.004 89.0829 119.772 91.339C117.504 93.6329 116.372 96.3354 116.372 99.449C116.372 102.563 117.504 105.268 119.772 107.559C122.074 109.818 124.787 110.946 127.912 110.946C131.038 110.946 133.75 109.815 136.053 107.559C138.337 105.335 139.48 102.63 139.48 99.449C139.48 96.2677 138.337 93.614 136.053 91.339C133.75 89.0802 131.038 87.9521 127.912 87.9521ZM133.348 104.892C131.855 106.363 130.041 107.099 127.912 107.099C125.783 107.099 123.945 106.363 122.452 104.892C120.975 103.404 120.236 101.589 120.236 99.4517C120.236 97.3146 120.975 95.5238 122.452 94.036C123.961 92.5482 125.783 91.8043 127.912 91.8043C130.041 91.8043 131.82 92.5482 133.348 94.036C134.842 95.559 135.589 97.3633 135.589 99.4517C135.589 101.54 134.842 103.388 133.348 104.892Z" fill="url(#paint9_linear_458_11050)"/>
<path d="M150.944 95.5238L145.019 87.9521H140.072L148.47 98.7078L150.944 95.5238Z" fill="url(#paint10_linear_458_11050)"/>
<path d="M158.131 87.9521L140.072 110.949H145.019L163 87.9521H158.131Z" fill="url(#paint11_linear_458_11050)"/>
<path d="M152.155 103.326L158.159 111L163 110.949L154.577 100.169L152.155 103.326Z" fill="url(#paint12_linear_458_11050)"/>
<path d="M72.4701 97.5256H60.9298V87.9521H57.0903V110.949H60.9298V101.375H72.4701V108.492V110.949H76.3096V108.492V97.5256V87.9521H72.4701V97.5256Z" fill="url(#paint13_linear_458_11050)"/>
</g>
<defs>
<linearGradient id="paint0_linear_458_11050" x1="45.9899" y1="60.4031" x2="114.163" y2="-7.00081" gradientUnits="userSpaceOnUse">
<stop stop-color="#00FFDF"/>
<stop offset="1" stop-color="#0185E9"/>
</linearGradient>
<linearGradient id="paint1_linear_458_11050" x1="1.78127" y1="100.217" x2="156.607" y2="75.7376" gradientUnits="userSpaceOnUse">
<stop stop-color="#DE4FFF"/>
<stop offset="1" stop-color="#21D3FF"/>
</linearGradient>
<linearGradient id="paint2_linear_458_11050" x1="0.722372" y1="93.5139" x2="155.548" y2="69.037" gradientUnits="userSpaceOnUse">
<stop stop-color="#DE4FFF"/>
<stop offset="1" stop-color="#21D3FF"/>
</linearGradient>
<linearGradient id="paint3_linear_458_11050" x1="3.67396" y1="112.199" x2="158.502" y2="87.7192" gradientUnits="userSpaceOnUse">
<stop stop-color="#DE4FFF"/>
<stop offset="1" stop-color="#21D3FF"/>
</linearGradient>
<linearGradient id="paint4_linear_458_11050" x1="2.19952" y1="102.868" x2="157.028" y2="78.3914" gradientUnits="userSpaceOnUse">
<stop stop-color="#DE4FFF"/>
<stop offset="1" stop-color="#21D3FF"/>
</linearGradient>
<linearGradient id="paint5_linear_458_11050" x1="2.73141" y1="106.236" x2="157.56" y2="81.7593" gradientUnits="userSpaceOnUse">
<stop stop-color="#DE4FFF"/>
<stop offset="1" stop-color="#21D3FF"/>
</linearGradient>
<linearGradient id="paint6_linear_458_11050" x1="4.70574" y1="112.185" x2="159.534" y2="87.7052" gradientUnits="userSpaceOnUse">
<stop stop-color="#DE4FFF"/>
<stop offset="1" stop-color="#21D3FF"/>
</linearGradient>
<linearGradient id="paint7_linear_458_11050" x1="5.52555" y1="117.37" x2="160.354" y2="92.8934" gradientUnits="userSpaceOnUse">
<stop stop-color="#DE4FFF"/>
<stop offset="1" stop-color="#21D3FF"/>
</linearGradient>
<linearGradient id="paint8_linear_458_11050" x1="5.15632" y1="115.031" x2="159.982" y2="90.5512" gradientUnits="userSpaceOnUse">
<stop stop-color="#DE4FFF"/>
<stop offset="1" stop-color="#21D3FF"/>
</linearGradient>
<linearGradient id="paint9_linear_458_11050" x1="5.72412" y1="118.62" x2="160.55" y2="94.1434" gradientUnits="userSpaceOnUse">
<stop stop-color="#DE4FFF"/>
<stop offset="1" stop-color="#21D3FF"/>
</linearGradient>
<linearGradient id="paint10_linear_458_11050" x1="5.17531" y1="115.155" x2="160.004" y2="90.6781" gradientUnits="userSpaceOnUse">
<stop stop-color="#DE4FFF"/>
<stop offset="1" stop-color="#21D3FF"/>
</linearGradient>
<linearGradient id="paint11_linear_458_11050" x1="6.29689" y1="122.245" x2="161.125" y2="97.7683" gradientUnits="userSpaceOnUse">
<stop stop-color="#DE4FFF"/>
<stop offset="1" stop-color="#21D3FF"/>
</linearGradient>
<linearGradient id="paint12_linear_458_11050" x1="7.41307" y1="129.311" x2="162.241" y2="104.834" gradientUnits="userSpaceOnUse">
<stop stop-color="#DE4FFF"/>
<stop offset="1" stop-color="#21D3FF"/>
</linearGradient>
<linearGradient id="paint13_linear_458_11050" x1="3.23399" y1="109.409" x2="158.062" y2="84.9324" gradientUnits="userSpaceOnUse">
<stop stop-color="#DE4FFF"/>
<stop offset="1" stop-color="#21D3FF"/>
</linearGradient>
<clipPath id="clip0_458_11050">
<rect width="163" height="111" fill="white"/>
</clipPath>
</defs>
</svg>
